<?xml version="1.0" encoding="utf-8"?>
<!-- Generator: Adobe Illustrator 19.0.0, SVG Export Plug-In . SVG Version: 6.00 Build 0)  -->
<svg version="1.1" id="图层_1" xmlns="http://www.w3.org/2000/svg" xmlns:xlink="http://www.w3.org/1999/xlink" x="0px" y="0px"
	 viewBox="0 0 64 64" style="enable-background:new 0 0 64 64;" xml:space="preserve">
<style type="text/css">
	.st0{fill:#FFFFFF;}
	.st1{fill:#231815;}
</style>
<rect id="XMLID_1_" x="5" y="5" class="st0" width="54" height="54"/>
<path id="XMLID_6_" class="st1" d="M56,2H8C4.7,2,2,4.7,2,8v48c0,3.3,2.7,6,6,6h48c3.3,0,6-2.7,6-6V8C62,4.7,59.3,2,56,2z M58,58H6
	V6h52V58z"/>
<polygon id="XMLID_7_" class="st1" points="57.5,17.9 51.8,12.2 23.5,40.5 12.2,29.2 6.5,34.8 17.9,46.1 23.5,51.8 29.2,46.1 
	29.2,46.1 "/>
</svg>
